<svg xmlns="http://www.w3.org/2000/svg" viewBox="0 0 1440 320">
  <path fill="#0099ff" fill-opacity=".6" d="M0,320L30,304C60,288,120,256,180,256C240,256,300,288,360,261.3C420,235,480,149,540,106.7C600,64,660,64,720,101.3C780,139,840,213,900,213.3C960,213,1020,139,1080,133.3C1140,128,1200,192,1260,213.3C1320,235,1380,213,1410,202.7L1440,192L1440,0L1410,0C1380,0,1320,0,1260,0C1200,0,1140,0,1080,0C1020,0,960,0,900,0C840,0,780,0,720,0C660,0,600,0,540,0C480,0,420,0,360,0C300,0,240,0,180,0C120,0,60,0,30,0L0,0Z"></path>
</svg>